<?xml version="1.0" standalone="no"?>
<!DOCTYPE svg PUBLIC "-//W3C//DTD SVG 20010904//EN"
 "http://www.w3.org/TR/2001/REC-SVG-20010904/DTD/svg10.dtd">
<svg version="1.0" xmlns="http://www.w3.org/2000/svg"
 width="620.000000pt" height="620.000000pt" viewBox="0 0 620.000000 620.000000"
 preserveAspectRatio="xMidYMid meet">
<metadata>
Created by potrace 1.11, written by Peter Selinger 2001-2013
</metadata>
<g transform="translate(0.000000,620.000000) scale(0.100000,-0.100000)"
fill="#000000" stroke="none">
<path d="M0 3100 l0 -3010 3100 0 3100 0 0 3010 0 3010 -3100 0 -3100 0 0
-3010z m3077 -677 c5 -1 437 599 962 1333 525 733 958 1334 963 1334 4 0 7
-892 6 -1982 l-3 -1983 -255 0 -255 0 -5 1239 -5 1240 -701 -994 c-385 -547
-704 -995 -710 -997 -5 -1 -319 431 -699 961 l-690 964 -3 -1209 -2 -1209
-250 0 -250 0 0 1991 0 1992 945 -1339 c520 -737 948 -1340 952 -1341z"/>
</g>
</svg>
